<svg xmlns="http://www.w3.org/2000/svg" xmlns:xlink="http://www.w3.org/1999/xlink" width="500" zoomAndPan="magnify" viewBox="0 0 375 374.999991" height="500" preserveAspectRatio="xMidYMid meet" version="1.0"><defs><g/><clipPath id="1e9c0ad261"><path d="M 16.046875 117.4375 L 122.546875 117.4375 L 122.546875 241 L 16.046875 241 Z M 16.046875 117.4375 " clip-rule="nonzero"/></clipPath></defs><g clip-path="url(#1e9c0ad261)"><path fill="#ffffff" d="M 66.378906 183.199219 L 38.269531 183.199219 L 38.269531 215.53125 L 16.300781 240.859375 L 16.0625 240.859375 L 16.0625 161.28125 L 38.269531 183.199219 L 38.269531 161.28125 L 85.421875 161.28125 Z M 122.167969 119.019531 L 104.226562 139.644531 L 16.0625 139.644531 L 16.0625 117.4375 L 122.167969 117.4375 Z M 122.167969 119.019531 " fill-opacity="1" fill-rule="nonzero"/></g><g fill="#ffffff" fill-opacity="1"><g transform="translate(128.82464, 174.050029)"><g><path d="M 1.421875 -15.34375 C 1.421875 -15.738281 1.578125 -16.078125 1.890625 -16.359375 C 2.203125 -16.648438 2.582031 -16.796875 3.03125 -16.796875 L 13.890625 -16.796875 C 13.890625 -15.835938 13.722656 -15.140625 13.390625 -14.703125 C 13.066406 -14.265625 12.539062 -14.046875 11.8125 -14.046875 L 4.625 -14.046875 L 4.625 -9.984375 L 11.015625 -9.984375 C 11.015625 -9.023438 10.847656 -8.320312 10.515625 -7.875 C 10.191406 -7.4375 9.660156 -7.21875 8.921875 -7.21875 L 4.625 -7.21875 L 4.625 -2.0625 C 4.625 -1.257812 4.367188 -0.675781 3.859375 -0.3125 C 3.347656 0.0390625 2.535156 0.21875 1.421875 0.21875 Z M 1.421875 -15.34375 "/></g></g></g><g fill="#ffffff" fill-opacity="1"><g transform="translate(143.56067, 174.050029)"><g><path d="M 5.40625 0.21875 C 4.582031 0.21875 3.832031 0.0546875 3.15625 -0.265625 C 2.476562 -0.585938 1.929688 -1.046875 1.515625 -1.640625 C 1.109375 -2.242188 0.90625 -2.960938 0.90625 -3.796875 C 0.90625 -4.628906 1.117188 -5.351562 1.546875 -5.96875 C 1.984375 -6.582031 2.570312 -7.050781 3.3125 -7.375 C 4.0625 -7.707031 4.882812 -7.875 5.78125 -7.875 C 6.519531 -7.875 7.179688 -7.753906 7.765625 -7.515625 C 8.347656 -7.285156 8.890625 -6.941406 9.390625 -6.484375 L 9.5 -6.59375 C 9.351562 -6.738281 9.109375 -6.957031 8.765625 -7.25 L 8.765625 -7.734375 C 8.765625 -8.390625 8.53125 -8.90625 8.0625 -9.28125 C 7.601562 -9.664062 6.957031 -9.859375 6.125 -9.859375 C 4.632812 -9.859375 3.535156 -9.316406 2.828125 -8.234375 C 2.472656 -8.347656 2.175781 -8.523438 1.9375 -8.765625 C 1.695312 -9.015625 1.578125 -9.285156 1.578125 -9.578125 C 1.578125 -10.054688 1.789062 -10.492188 2.21875 -10.890625 C 2.65625 -11.296875 3.242188 -11.617188 3.984375 -11.859375 C 4.722656 -12.097656 5.523438 -12.21875 6.390625 -12.21875 C 8.078125 -12.21875 9.382812 -11.820312 10.3125 -11.03125 C 11.25 -10.238281 11.71875 -9.160156 11.71875 -7.796875 L 11.71875 -1.796875 C 11.71875 -1.097656 11.492188 -0.585938 11.046875 -0.265625 C 10.597656 0.0546875 9.890625 0.21875 8.921875 0.21875 L 8.921875 -0.765625 C 9.203125 -1.035156 9.390625 -1.238281 9.484375 -1.375 L 9.390625 -1.484375 C 8.859375 -0.921875 8.289062 -0.492188 7.6875 -0.203125 C 7.09375 0.078125 6.332031 0.21875 5.40625 0.21875 Z M 6.171875 -1.96875 C 7.003906 -1.96875 7.648438 -2.125 8.109375 -2.4375 C 8.578125 -2.757812 8.8125 -3.21875 8.8125 -3.8125 C 8.8125 -4.394531 8.570312 -4.851562 8.09375 -5.1875 C 7.625 -5.519531 6.988281 -5.6875 6.1875 -5.6875 C 5.457031 -5.6875 4.878906 -5.519531 4.453125 -5.1875 C 4.023438 -4.863281 3.8125 -4.40625 3.8125 -3.8125 C 3.8125 -3.207031 4.019531 -2.75 4.4375 -2.4375 C 4.851562 -2.125 5.429688 -1.96875 6.171875 -1.96875 Z M 6.171875 -1.96875 "/></g></g></g><g fill="#ffffff" fill-opacity="1"><g transform="translate(156.5447, 174.050029)"><g><path d="M 6.28125 0.21875 C 4.75 0.21875 3.515625 -0.0546875 2.578125 -0.609375 C 1.640625 -1.160156 1.164062 -1.898438 1.15625 -2.828125 C 1.15625 -3.234375 1.316406 -3.570312 1.640625 -3.84375 C 1.972656 -4.113281 2.5 -4.253906 3.21875 -4.265625 C 3.363281 -3.566406 3.695312 -3.03125 4.21875 -2.65625 C 4.75 -2.28125 5.390625 -2.09375 6.140625 -2.09375 C 6.960938 -2.09375 7.601562 -2.195312 8.0625 -2.40625 C 8.53125 -2.613281 8.765625 -2.925781 8.765625 -3.34375 C 8.765625 -3.71875 8.570312 -4.035156 8.1875 -4.296875 C 7.8125 -4.554688 7.070312 -4.8125 5.96875 -5.0625 C 4.769531 -5.351562 3.835938 -5.640625 3.171875 -5.921875 C 2.515625 -6.210938 2.023438 -6.582031 1.703125 -7.03125 C 1.378906 -7.476562 1.21875 -8.070312 1.21875 -8.8125 C 1.21875 -9.832031 1.648438 -10.65625 2.515625 -11.28125 C 3.378906 -11.90625 4.566406 -12.21875 6.078125 -12.21875 C 7.523438 -12.21875 8.726562 -11.957031 9.6875 -11.4375 C 10.65625 -10.914062 11.140625 -10.222656 11.140625 -9.359375 C 11.140625 -8.929688 10.976562 -8.613281 10.65625 -8.40625 C 10.332031 -8.195312 9.804688 -8.082031 9.078125 -8.0625 C 8.910156 -8.707031 8.601562 -9.1875 8.15625 -9.5 C 7.707031 -9.820312 7.078125 -9.984375 6.265625 -9.984375 C 5.660156 -9.984375 5.132812 -9.878906 4.6875 -9.671875 C 4.25 -9.460938 4.03125 -9.191406 4.03125 -8.859375 C 4.03125 -8.503906 4.210938 -8.226562 4.578125 -8.03125 C 4.953125 -7.84375 5.59375 -7.65625 6.5 -7.46875 C 8.289062 -7.082031 9.585938 -6.566406 10.390625 -5.921875 C 11.203125 -5.285156 11.609375 -4.414062 11.609375 -3.3125 C 11.609375 -2.238281 11.132812 -1.378906 10.1875 -0.734375 C 9.238281 -0.0976562 7.9375 0.21875 6.28125 0.21875 Z M 6.28125 0.21875 "/></g></g></g><g fill="#ffffff" fill-opacity="1"><g transform="translate(168.904719, 174.050029)"><g><path d="M 7.125 0.21875 C 5.832031 0.21875 4.875 -0.15625 4.25 -0.90625 C 3.625 -1.664062 3.3125 -2.632812 3.3125 -3.8125 L 3.3125 -9.765625 L 0.84375 -9.765625 C 0.84375 -10.515625 0.984375 -11.070312 1.265625 -11.4375 C 1.554688 -11.8125 1.941406 -12 2.421875 -12 L 3.359375 -12 L 3.359375 -13.984375 C 3.359375 -14.640625 3.597656 -15.109375 4.078125 -15.390625 C 4.554688 -15.671875 5.285156 -15.8125 6.265625 -15.8125 L 6.265625 -12 L 9.453125 -12 C 9.453125 -11.195312 9.300781 -10.625 9 -10.28125 C 8.695312 -9.9375 8.207031 -9.765625 7.53125 -9.765625 L 6.3125 -9.765625 L 6.3125 -3.9375 C 6.3125 -3.375 6.414062 -2.972656 6.625 -2.734375 C 6.84375 -2.492188 7.21875 -2.375 7.75 -2.375 C 8.3125 -2.375 8.875 -2.523438 9.4375 -2.828125 C 9.59375 -2.679688 9.71875 -2.5 9.8125 -2.28125 C 9.90625 -2.070312 9.953125 -1.851562 9.953125 -1.625 C 9.953125 -1.144531 9.703125 -0.71875 9.203125 -0.34375 C 8.710938 0.03125 8.019531 0.21875 7.125 0.21875 Z M 7.125 0.21875 "/></g></g></g><g fill="#ffffff" fill-opacity="1"><g transform="translate(179.704737, 174.050029)"><g/></g></g><g fill="#ffffff" fill-opacity="1"><g transform="translate(185.896745, 174.050029)"><g><path d="M 6.453125 -14.015625 L 0.671875 -14.015625 C 0.671875 -15.867188 1.507812 -16.796875 3.1875 -16.796875 L 15.453125 -16.796875 C 15.453125 -14.941406 14.601562 -14.015625 12.90625 -14.015625 L 9.671875 -14.015625 L 9.671875 -2.15625 C 9.671875 -1.394531 9.398438 -0.804688 8.859375 -0.390625 C 8.316406 0.015625 7.515625 0.21875 6.453125 0.21875 Z M 6.453125 -14.015625 "/></g></g></g><g fill="#ffffff" fill-opacity="1"><g transform="translate(202.000779, 174.050029)"><g><path d="M 1.421875 -14.71875 C 1.421875 -15.445312 1.675781 -16.007812 2.1875 -16.40625 C 2.695312 -16.8125 3.429688 -17.015625 4.390625 -17.015625 L 4.390625 -10.78125 C 4.179688 -10.550781 3.988281 -10.296875 3.8125 -10.015625 L 3.953125 -9.90625 C 5.054688 -11.445312 6.46875 -12.21875 8.1875 -12.21875 C 9 -12.21875 9.71875 -12.03125 10.34375 -11.65625 C 10.96875 -11.289062 11.453125 -10.785156 11.796875 -10.140625 C 12.140625 -9.503906 12.3125 -8.785156 12.3125 -7.984375 L 12.3125 -1.609375 C 12.3125 -0.960938 12.0625 -0.492188 11.5625 -0.203125 C 11.070312 0.078125 10.320312 0.21875 9.3125 0.21875 L 9.3125 -7.5625 C 9.3125 -8.164062 9.128906 -8.660156 8.765625 -9.046875 C 8.410156 -9.429688 7.890625 -9.625 7.203125 -9.625 C 6.378906 -9.625 5.703125 -9.367188 5.171875 -8.859375 C 4.648438 -8.359375 4.390625 -7.734375 4.390625 -6.984375 L 4.390625 -1.609375 C 4.390625 -0.960938 4.140625 -0.492188 3.640625 -0.203125 C 3.148438 0.078125 2.410156 0.21875 1.421875 0.21875 Z M 1.421875 -14.71875 "/></g></g></g><g fill="#ffffff" fill-opacity="1"><g transform="translate(215.488807, 174.050029)"><g><path d="M 7.578125 -9.625 C 6.640625 -9.625 5.875 -9.367188 5.28125 -8.859375 C 4.6875 -8.359375 4.390625 -7.734375 4.390625 -6.984375 L 4.390625 -1.609375 C 4.390625 -0.960938 4.148438 -0.492188 3.671875 -0.203125 C 3.191406 0.078125 2.441406 0.21875 1.421875 0.21875 L 1.421875 -9.90625 C 1.421875 -10.644531 1.65625 -11.210938 2.125 -11.609375 C 2.59375 -12.015625 3.304688 -12.21875 4.265625 -12.21875 L 4.265625 -10.796875 C 4.023438 -10.523438 3.835938 -10.265625 3.703125 -10.015625 L 3.84375 -9.90625 C 4.851562 -11.445312 6.113281 -12.21875 7.625 -12.21875 C 8.3125 -12.21875 8.832031 -12.035156 9.1875 -11.671875 C 9.539062 -11.316406 9.71875 -10.863281 9.71875 -10.3125 C 9.71875 -9.90625 9.609375 -9.554688 9.390625 -9.265625 C 8.953125 -9.503906 8.347656 -9.625 7.578125 -9.625 Z M 7.578125 -9.625 "/></g></g></g><g fill="#ffffff" fill-opacity="1"><g transform="translate(225.856833, 174.050029)"><g><path d="M 3.40625 -13.34375 C 2.832031 -13.34375 2.359375 -13.515625 1.984375 -13.859375 C 1.609375 -14.203125 1.421875 -14.644531 1.421875 -15.1875 C 1.421875 -15.71875 1.609375 -16.15625 1.984375 -16.5 C 2.359375 -16.84375 2.832031 -17.015625 3.40625 -17.015625 C 3.976562 -17.015625 4.453125 -16.84375 4.828125 -16.5 C 5.210938 -16.15625 5.40625 -15.71875 5.40625 -15.1875 C 5.40625 -14.644531 5.210938 -14.203125 4.828125 -13.859375 C 4.453125 -13.515625 3.976562 -13.34375 3.40625 -13.34375 Z M 1.890625 -10.390625 C 1.890625 -11.046875 2.140625 -11.515625 2.640625 -11.796875 C 3.140625 -12.078125 3.890625 -12.21875 4.890625 -12.21875 L 4.890625 -1.609375 C 4.890625 -0.960938 4.640625 -0.492188 4.140625 -0.203125 C 3.648438 0.078125 2.898438 0.21875 1.890625 0.21875 Z M 1.890625 -10.390625 "/></g></g></g><g fill="#ffffff" fill-opacity="1"><g transform="translate(232.672842, 174.050029)"><g><path d="M 6.8125 0.21875 C 6.425781 0.21875 6.09375 0.128906 5.8125 -0.046875 C 5.539062 -0.222656 5.347656 -0.460938 5.234375 -0.765625 L 0.90625 -11.96875 C 1.019531 -12.039062 1.21875 -12.097656 1.5 -12.140625 C 1.78125 -12.191406 2.007812 -12.21875 2.1875 -12.21875 C 2.644531 -12.21875 3.0625 -12.117188 3.4375 -11.921875 C 3.820312 -11.734375 4.078125 -11.457031 4.203125 -11.09375 L 6.671875 -3.59375 L 6.265625 -2.46875 L 6.453125 -2.421875 L 9.4375 -11.09375 C 9.5625 -11.457031 9.8125 -11.734375 10.1875 -11.921875 C 10.5625 -12.117188 10.984375 -12.21875 11.453125 -12.21875 C 11.628906 -12.21875 11.851562 -12.191406 12.125 -12.140625 C 12.40625 -12.097656 12.601562 -12.039062 12.71875 -11.96875 L 8.40625 -0.765625 C 8.289062 -0.460938 8.09375 -0.222656 7.8125 -0.046875 C 7.53125 0.128906 7.195312 0.21875 6.8125 0.21875 Z M 6.8125 0.21875 "/></g></g></g><g fill="#ffffff" fill-opacity="1"><g transform="translate(246.304872, 174.050029)"><g><path d="M 6.640625 0.21875 C 5.648438 0.21875 4.75 0.0234375 3.9375 -0.359375 C 3.125 -0.753906 2.472656 -1.289062 1.984375 -1.96875 C 1.503906 -2.65625 1.265625 -3.421875 1.265625 -4.265625 L 1.265625 -7.46875 C 1.265625 -8.363281 1.515625 -9.171875 2.015625 -9.890625 C 2.515625 -10.609375 3.175781 -11.175781 4 -11.59375 C 4.820312 -12.007812 5.710938 -12.21875 6.671875 -12.21875 C 7.617188 -12.21875 8.488281 -12.019531 9.28125 -11.625 C 10.070312 -11.238281 10.695312 -10.695312 11.15625 -10 C 11.625 -9.300781 11.859375 -8.503906 11.859375 -7.609375 L 11.859375 -6.265625 C 11.859375 -5.910156 11.722656 -5.613281 11.453125 -5.375 C 11.191406 -5.132812 10.863281 -5.015625 10.46875 -5.015625 L 4.171875 -5.015625 L 4.171875 -4.484375 C 4.171875 -3.796875 4.378906 -3.234375 4.796875 -2.796875 C 5.210938 -2.367188 5.835938 -2.15625 6.671875 -2.15625 C 7.472656 -2.15625 8.066406 -2.332031 8.453125 -2.6875 C 8.847656 -3.039062 9.046875 -3.5 9.046875 -4.0625 C 9.335938 -4.09375 9.535156 -4.109375 9.640625 -4.109375 C 10.234375 -4.109375 10.695312 -3.972656 11.03125 -3.703125 C 11.375 -3.441406 11.546875 -3.070312 11.546875 -2.59375 C 11.546875 -2.125 11.328125 -1.671875 10.890625 -1.234375 C 10.460938 -0.804688 9.867188 -0.457031 9.109375 -0.1875 C 8.359375 0.0820312 7.535156 0.21875 6.640625 0.21875 Z M 9.140625 -7.15625 L 9.140625 -7.609375 C 9.140625 -8.273438 8.90625 -8.816406 8.4375 -9.234375 C 7.976562 -9.648438 7.378906 -9.859375 6.640625 -9.859375 C 5.910156 -9.859375 5.316406 -9.65625 4.859375 -9.25 C 4.398438 -8.84375 4.171875 -8.296875 4.171875 -7.609375 L 4.171875 -7.15625 Z M 9.140625 -7.15625 "/></g></g></g><g fill="#ffffff" fill-opacity="1"><g transform="translate(259.048898, 174.050029)"><g/></g></g><g fill="#ffffff" fill-opacity="1"><g transform="translate(265.240906, 174.050029)"><g><path d="M 1.421875 -14.640625 C 1.421875 -15.410156 1.691406 -16 2.234375 -16.40625 C 2.773438 -16.8125 3.570312 -17.015625 4.625 -17.015625 L 4.625 -9.859375 L 11.8125 -9.859375 L 11.8125 -14.640625 C 11.8125 -15.421875 12.085938 -16.007812 12.640625 -16.40625 C 13.191406 -16.8125 13.988281 -17.015625 15.03125 -17.015625 L 15.03125 -2.15625 C 15.03125 -1.394531 14.753906 -0.804688 14.203125 -0.390625 C 13.648438 0.015625 12.851562 0.21875 11.8125 0.21875 L 11.8125 -7.078125 L 4.625 -7.078125 L 4.625 -2.15625 C 4.625 -1.394531 4.347656 -0.804688 3.796875 -0.390625 C 3.242188 0.015625 2.453125 0.21875 1.421875 0.21875 Z M 1.421875 -14.640625 "/></g></g></g><g fill="#ffffff" fill-opacity="1"><g transform="translate(281.680938, 174.050029)"><g><path d="M 6.4375 0.21875 C 5.394531 0.21875 4.453125 0.03125 3.609375 -0.34375 C 2.773438 -0.71875 2.113281 -1.238281 1.625 -1.90625 C 1.144531 -2.582031 0.90625 -3.347656 0.90625 -4.203125 L 0.90625 -7.578125 C 0.90625 -8.441406 1.140625 -9.222656 1.609375 -9.921875 C 2.085938 -10.628906 2.742188 -11.1875 3.578125 -11.59375 C 4.410156 -12.007812 5.363281 -12.21875 6.4375 -12.21875 C 7.507812 -12.21875 8.460938 -12.007812 9.296875 -11.59375 C 10.140625 -11.1875 10.796875 -10.628906 11.265625 -9.921875 C 11.734375 -9.222656 11.96875 -8.441406 11.96875 -7.578125 L 11.96875 -4.203125 C 11.96875 -3.347656 11.722656 -2.582031 11.234375 -1.90625 C 10.753906 -1.238281 10.09375 -0.71875 9.25 -0.34375 C 8.40625 0.03125 7.46875 0.21875 6.4375 0.21875 Z M 6.4375 -2.359375 C 7.226562 -2.359375 7.851562 -2.539062 8.3125 -2.90625 C 8.769531 -3.269531 9 -3.765625 9 -4.390625 L 9 -7.4375 C 9 -8.09375 8.769531 -8.625 8.3125 -9.03125 C 7.851562 -9.4375 7.226562 -9.640625 6.4375 -9.640625 C 5.644531 -9.640625 5.015625 -9.4375 4.546875 -9.03125 C 4.085938 -8.625 3.859375 -8.09375 3.859375 -7.4375 L 3.859375 -4.390625 C 3.859375 -3.765625 4.085938 -3.269531 4.546875 -2.90625 C 5.015625 -2.539062 5.644531 -2.359375 6.4375 -2.359375 Z M 6.4375 -2.359375 "/></g></g></g><g fill="#ffffff" fill-opacity="1"><g transform="translate(294.568964, 174.050029)"><g><path d="M 5.359375 0.21875 C 4.023438 0.21875 3.015625 -0.160156 2.328125 -0.921875 C 1.648438 -1.679688 1.3125 -2.644531 1.3125 -3.8125 L 1.3125 -15.1875 C 1.3125 -15.84375 1.554688 -16.3125 2.046875 -16.59375 C 2.535156 -16.875 3.289062 -17.015625 4.3125 -17.015625 L 4.3125 -3.9375 C 4.3125 -3.394531 4.429688 -3 4.671875 -2.75 C 4.921875 -2.5 5.304688 -2.375 5.828125 -2.375 C 6.421875 -2.375 7.015625 -2.523438 7.609375 -2.828125 C 7.765625 -2.679688 7.882812 -2.5 7.96875 -2.28125 C 8.0625 -2.070312 8.109375 -1.851562 8.109375 -1.625 C 8.109375 -1.144531 7.867188 -0.71875 7.390625 -0.34375 C 6.910156 0.03125 6.234375 0.21875 5.359375 0.21875 Z M 5.359375 0.21875 "/></g></g></g><g fill="#ffffff" fill-opacity="1"><g transform="translate(303.328981, 174.050029)"><g><path d="M 5.828125 0.21875 C 4.960938 0.21875 4.1875 0.0351562 3.5 -0.328125 C 2.8125 -0.703125 2.265625 -1.210938 1.859375 -1.859375 C 1.460938 -2.503906 1.265625 -3.253906 1.265625 -4.109375 L 1.265625 -7.890625 C 1.265625 -8.722656 1.472656 -9.46875 1.890625 -10.125 C 2.304688 -10.78125 2.882812 -11.289062 3.625 -11.65625 C 4.375 -12.03125 5.207031 -12.21875 6.125 -12.21875 C 6.71875 -12.21875 7.328125 -12.09375 7.953125 -11.84375 C 8.585938 -11.59375 9.117188 -11.257812 9.546875 -10.84375 L 9.640625 -10.96875 C 9.566406 -11.09375 9.394531 -11.253906 9.125 -11.453125 L 9.125 -15 C 9.125 -15.632812 9.375 -16.128906 9.875 -16.484375 C 10.375 -16.835938 11.140625 -17.015625 12.171875 -17.015625 L 12.171875 -1.84375 C 12.171875 -1.25 11.945312 -0.753906 11.5 -0.359375 C 11.050781 0.0234375 10.351562 0.21875 9.40625 0.21875 L 9.40625 -1.109375 C 9.613281 -1.359375 9.765625 -1.566406 9.859375 -1.734375 L 9.75 -1.828125 C 9.25 -1.148438 8.695312 -0.640625 8.09375 -0.296875 C 7.5 0.046875 6.742188 0.21875 5.828125 0.21875 Z M 6.71875 -2.375 C 7.4375 -2.375 8.023438 -2.546875 8.484375 -2.890625 C 8.941406 -3.234375 9.171875 -3.671875 9.171875 -4.203125 L 9.171875 -7.828125 C 9.171875 -8.335938 8.941406 -8.765625 8.484375 -9.109375 C 8.023438 -9.453125 7.429688 -9.625 6.703125 -9.625 C 5.910156 -9.625 5.300781 -9.457031 4.875 -9.125 C 4.457031 -8.800781 4.25 -8.335938 4.25 -7.734375 L 4.25 -4.3125 C 4.25 -3.675781 4.457031 -3.191406 4.875 -2.859375 C 5.300781 -2.535156 5.914062 -2.375 6.71875 -2.375 Z M 6.71875 -2.375 "/></g></g></g><g fill="#ffffff" fill-opacity="1"><g transform="translate(316.889004, 174.050029)"><g><path d="M 3.40625 -13.34375 C 2.832031 -13.34375 2.359375 -13.515625 1.984375 -13.859375 C 1.609375 -14.203125 1.421875 -14.644531 1.421875 -15.1875 C 1.421875 -15.71875 1.609375 -16.15625 1.984375 -16.5 C 2.359375 -16.84375 2.832031 -17.015625 3.40625 -17.015625 C 3.976562 -17.015625 4.453125 -16.84375 4.828125 -16.5 C 5.210938 -16.15625 5.40625 -15.71875 5.40625 -15.1875 C 5.40625 -14.644531 5.210938 -14.203125 4.828125 -13.859375 C 4.453125 -13.515625 3.976562 -13.34375 3.40625 -13.34375 Z M 1.890625 -10.390625 C 1.890625 -11.046875 2.140625 -11.515625 2.640625 -11.796875 C 3.140625 -12.078125 3.890625 -12.21875 4.890625 -12.21875 L 4.890625 -1.609375 C 4.890625 -0.960938 4.640625 -0.492188 4.140625 -0.203125 C 3.648438 0.078125 2.898438 0.21875 1.890625 0.21875 Z M 1.890625 -10.390625 "/></g></g></g><g fill="#ffffff" fill-opacity="1"><g transform="translate(323.705013, 174.050029)"><g><path d="M 1.421875 -9.90625 C 1.421875 -10.644531 1.65625 -11.210938 2.125 -11.609375 C 2.59375 -12.015625 3.304688 -12.21875 4.265625 -12.21875 L 4.265625 -10.78125 C 4.078125 -10.550781 3.890625 -10.296875 3.703125 -10.015625 L 3.84375 -9.90625 C 4.320312 -10.625 4.9375 -11.1875 5.6875 -11.59375 C 6.4375 -12.007812 7.269531 -12.21875 8.1875 -12.21875 C 9 -12.21875 9.71875 -12.03125 10.34375 -11.65625 C 10.96875 -11.289062 11.453125 -10.785156 11.796875 -10.140625 C 12.140625 -9.503906 12.3125 -8.785156 12.3125 -7.984375 L 12.3125 -1.609375 C 12.3125 -0.960938 12.0625 -0.492188 11.5625 -0.203125 C 11.070312 0.078125 10.320312 0.21875 9.3125 0.21875 L 9.3125 -7.5625 C 9.3125 -8.164062 9.128906 -8.660156 8.765625 -9.046875 C 8.410156 -9.429688 7.890625 -9.625 7.203125 -9.625 C 6.378906 -9.625 5.703125 -9.367188 5.171875 -8.859375 C 4.648438 -8.359375 4.390625 -7.734375 4.390625 -6.984375 L 4.390625 -1.609375 C 4.390625 -0.960938 4.148438 -0.492188 3.671875 -0.203125 C 3.191406 0.078125 2.441406 0.21875 1.421875 0.21875 Z M 1.421875 -9.90625 "/></g></g></g><g fill="#ffffff" fill-opacity="1"><g transform="translate(337.265025, 174.050029)"><g><path d="M 6.359375 5.015625 C 5.410156 5.015625 4.566406 4.878906 3.828125 4.609375 C 3.097656 4.347656 2.523438 3.992188 2.109375 3.546875 C 1.691406 3.097656 1.484375 2.601562 1.484375 2.0625 C 1.484375 1.519531 1.671875 1.132812 2.046875 0.90625 C 2.421875 0.6875 2.953125 0.578125 3.640625 0.578125 C 3.710938 1.234375 3.972656 1.738281 4.421875 2.09375 C 4.867188 2.457031 5.515625 2.640625 6.359375 2.640625 C 7.304688 2.640625 7.972656 2.40625 8.359375 1.9375 C 8.753906 1.476562 8.953125 0.84375 8.953125 0.03125 L 8.953125 -0.796875 C 9.191406 -0.972656 9.367188 -1.140625 9.484375 -1.296875 L 9.390625 -1.421875 C 8.972656 -1.003906 8.414062 -0.664062 7.71875 -0.40625 C 7.019531 -0.15625 6.367188 -0.03125 5.765625 -0.03125 C 4.867188 -0.03125 4.066406 -0.207031 3.359375 -0.5625 C 2.648438 -0.925781 2.09375 -1.4375 1.6875 -2.09375 C 1.28125 -2.75 1.078125 -3.488281 1.078125 -4.3125 L 1.078125 -7.890625 C 1.078125 -8.691406 1.289062 -9.425781 1.71875 -10.09375 C 2.144531 -10.757812 2.703125 -11.28125 3.390625 -11.65625 C 4.085938 -12.03125 4.835938 -12.21875 5.640625 -12.21875 C 6.515625 -12.21875 7.257812 -12.039062 7.875 -11.6875 C 8.5 -11.332031 9.066406 -10.828125 9.578125 -10.171875 L 9.671875 -10.265625 C 9.585938 -10.410156 9.4375 -10.617188 9.21875 -10.890625 C 9.21875 -11.773438 10.132812 -12.21875 11.96875 -12.21875 L 11.96875 -0.40625 C 11.96875 0.644531 11.726562 1.578125 11.25 2.390625 C 10.769531 3.210938 10.101562 3.851562 9.25 4.3125 C 8.394531 4.78125 7.429688 5.015625 6.359375 5.015625 Z M 6.53125 -2.59375 C 7.226562 -2.59375 7.816406 -2.769531 8.296875 -3.125 C 8.785156 -3.488281 9.03125 -3.921875 9.03125 -4.421875 L 9.03125 -7.828125 C 9.03125 -8.335938 8.789062 -8.765625 8.3125 -9.109375 C 7.84375 -9.460938 7.25 -9.640625 6.53125 -9.640625 C 5.75 -9.640625 5.144531 -9.472656 4.71875 -9.140625 C 4.289062 -8.804688 4.078125 -8.328125 4.078125 -7.703125 L 4.078125 -4.53125 C 4.078125 -3.925781 4.285156 -3.453125 4.703125 -3.109375 C 5.117188 -2.765625 5.726562 -2.59375 6.53125 -2.59375 Z M 6.53125 -2.59375 "/></g></g></g><g fill="#ffffff" fill-opacity="1"><g transform="translate(350.561044, 174.050029)"><g><path d="M 6.28125 0.21875 C 4.75 0.21875 3.515625 -0.0546875 2.578125 -0.609375 C 1.640625 -1.160156 1.164062 -1.898438 1.15625 -2.828125 C 1.15625 -3.234375 1.316406 -3.570312 1.640625 -3.84375 C 1.972656 -4.113281 2.5 -4.253906 3.21875 -4.265625 C 3.363281 -3.566406 3.695312 -3.03125 4.21875 -2.65625 C 4.75 -2.28125 5.390625 -2.09375 6.140625 -2.09375 C 6.960938 -2.09375 7.601562 -2.195312 8.0625 -2.40625 C 8.53125 -2.613281 8.765625 -2.925781 8.765625 -3.34375 C 8.765625 -3.71875 8.570312 -4.035156 8.1875 -4.296875 C 7.8125 -4.554688 7.070312 -4.8125 5.96875 -5.0625 C 4.769531 -5.351562 3.835938 -5.640625 3.171875 -5.921875 C 2.515625 -6.210938 2.023438 -6.582031 1.703125 -7.03125 C 1.378906 -7.476562 1.21875 -8.070312 1.21875 -8.8125 C 1.21875 -9.832031 1.648438 -10.65625 2.515625 -11.28125 C 3.378906 -11.90625 4.566406 -12.21875 6.078125 -12.21875 C 7.523438 -12.21875 8.726562 -11.957031 9.6875 -11.4375 C 10.65625 -10.914062 11.140625 -10.222656 11.140625 -9.359375 C 11.140625 -8.929688 10.976562 -8.613281 10.65625 -8.40625 C 10.332031 -8.195312 9.804688 -8.082031 9.078125 -8.0625 C 8.910156 -8.707031 8.601562 -9.1875 8.15625 -9.5 C 7.707031 -9.820312 7.078125 -9.984375 6.265625 -9.984375 C 5.660156 -9.984375 5.132812 -9.878906 4.6875 -9.671875 C 4.25 -9.460938 4.03125 -9.191406 4.03125 -8.859375 C 4.03125 -8.503906 4.210938 -8.226562 4.578125 -8.03125 C 4.953125 -7.84375 5.59375 -7.65625 6.5 -7.46875 C 8.289062 -7.082031 9.585938 -6.566406 10.390625 -5.921875 C 11.203125 -5.285156 11.609375 -4.414062 11.609375 -3.3125 C 11.609375 -2.238281 11.132812 -1.378906 10.1875 -0.734375 C 9.238281 -0.0976562 7.9375 0.21875 6.28125 0.21875 Z M 6.28125 0.21875 "/></g></g></g><g fill="#ffffff" fill-opacity="1"><g transform="translate(172.322395, 192.749987)"><g><path d="M 0.984375 -9.1875 C 0.984375 -9.363281 1.046875 -9.507812 1.171875 -9.625 C 1.304688 -9.738281 1.46875 -9.796875 1.65625 -9.796875 L 7.890625 -9.796875 C 7.890625 -9.410156 7.8125 -9.125 7.65625 -8.9375 C 7.5 -8.75 7.257812 -8.65625 6.9375 -8.65625 L 2.296875 -8.65625 L 2.296875 -5.59375 L 6.21875 -5.59375 C 6.21875 -5.195312 6.132812 -4.90625 5.96875 -4.71875 C 5.8125 -4.53125 5.570312 -4.4375 5.25 -4.4375 L 2.296875 -4.4375 L 2.296875 -0.9375 C 2.296875 -0.570312 2.1875 -0.300781 1.96875 -0.125 C 1.757812 0.0390625 1.429688 0.125 0.984375 0.125 Z M 0.984375 -9.1875 "/></g></g></g><g fill="#ffffff" fill-opacity="1"><g transform="translate(188.249729, 192.749987)"><g><path d="M 1.265625 -8.828125 C 1.265625 -9.179688 1.378906 -9.453125 1.609375 -9.640625 C 1.835938 -9.828125 2.160156 -9.921875 2.578125 -9.921875 L 2.578125 -0.96875 C 2.578125 -0.625 2.460938 -0.351562 2.234375 -0.15625 C 2.003906 0.03125 1.679688 0.125 1.265625 0.125 Z M 1.265625 -8.828125 "/></g></g></g><g fill="#ffffff" fill-opacity="1"><g transform="translate(199.629604, 192.749987)"><g><path d="M 0.984375 -8.796875 C 0.984375 -9.148438 1.09375 -9.425781 1.3125 -9.625 C 1.53125 -9.820312 1.832031 -9.921875 2.21875 -9.921875 L 7.65625 -1.671875 L 7.75 -1.75 L 7.34375 -2.421875 L 7.34375 -9.921875 C 7.78125 -9.921875 8.109375 -9.828125 8.328125 -9.640625 C 8.546875 -9.453125 8.65625 -9.179688 8.65625 -8.828125 L 8.65625 -0.90625 C 8.65625 -0.613281 8.546875 -0.367188 8.328125 -0.171875 C 8.117188 0.0234375 7.851562 0.125 7.53125 0.125 L 1.96875 -8.3125 L 1.875 -8.234375 L 2.28125 -7.5625 L 2.28125 -0.96875 C 2.28125 -0.613281 2.171875 -0.34375 1.953125 -0.15625 C 1.734375 0.03125 1.410156 0.125 0.984375 0.125 Z M 0.984375 -8.796875 "/></g></g></g><g fill="#ffffff" fill-opacity="1"><g transform="translate(216.80225, 192.749987)"><g><path d="M 1.53125 0.125 C 1.25 0.0703125 1.023438 -0.0390625 0.859375 -0.21875 C 0.703125 -0.40625 0.625 -0.628906 0.625 -0.890625 C 0.625 -1.066406 0.664062 -1.253906 0.75 -1.453125 L 4.109375 -9.5 C 4.210938 -9.78125 4.425781 -9.921875 4.75 -9.921875 C 5.039062 -9.921875 5.25 -9.78125 5.375 -9.5 L 8.71875 -1.453125 C 8.800781 -1.253906 8.84375 -1.066406 8.84375 -0.890625 C 8.84375 -0.640625 8.765625 -0.421875 8.609375 -0.234375 C 8.453125 -0.046875 8.234375 0.0703125 7.953125 0.125 L 6.75 -2.796875 L 2.734375 -2.796875 Z M 6.34375 -3.9375 L 4.53125 -8.515625 L 4.421875 -8.46875 L 4.671875 -7.828125 L 3.140625 -3.9375 Z M 6.34375 -3.9375 "/></g></g></g><g fill="#ffffff" fill-opacity="1"><g transform="translate(233.820972, 192.749987)"><g><path d="M 0.984375 -8.796875 C 0.984375 -9.148438 1.09375 -9.425781 1.3125 -9.625 C 1.53125 -9.820312 1.832031 -9.921875 2.21875 -9.921875 L 7.65625 -1.671875 L 7.75 -1.75 L 7.34375 -2.421875 L 7.34375 -9.921875 C 7.78125 -9.921875 8.109375 -9.828125 8.328125 -9.640625 C 8.546875 -9.453125 8.65625 -9.179688 8.65625 -8.828125 L 8.65625 -0.90625 C 8.65625 -0.613281 8.546875 -0.367188 8.328125 -0.171875 C 8.117188 0.0234375 7.851562 0.125 7.53125 0.125 L 1.96875 -8.3125 L 1.875 -8.234375 L 2.28125 -7.5625 L 2.28125 -0.96875 C 2.28125 -0.613281 2.171875 -0.34375 1.953125 -0.15625 C 1.734375 0.03125 1.410156 0.125 0.984375 0.125 Z M 0.984375 -8.796875 "/></g></g></g><g fill="#ffffff" fill-opacity="1"><g transform="translate(250.99362, 192.749987)"><g><path d="M 4.890625 0.125 C 4.097656 0.125 3.394531 -0.0195312 2.78125 -0.3125 C 2.164062 -0.601562 1.6875 -1.015625 1.34375 -1.546875 C 1.007812 -2.078125 0.84375 -2.675781 0.84375 -3.34375 L 0.84375 -6.484375 C 0.84375 -7.148438 1.007812 -7.742188 1.34375 -8.265625 C 1.6875 -8.796875 2.160156 -9.203125 2.765625 -9.484375 C 3.378906 -9.773438 4.078125 -9.921875 4.859375 -9.921875 C 5.640625 -9.921875 6.332031 -9.796875 6.9375 -9.546875 C 7.550781 -9.304688 8.023438 -8.96875 8.359375 -8.53125 C 8.703125 -8.09375 8.875 -7.585938 8.875 -7.015625 C 8.875 -6.734375 8.78125 -6.515625 8.59375 -6.359375 C 8.40625 -6.203125 8.160156 -6.125 7.859375 -6.125 C 7.785156 -6.125 7.6875 -6.128906 7.5625 -6.140625 C 7.582031 -6.253906 7.59375 -6.429688 7.59375 -6.671875 C 7.59375 -7.078125 7.476562 -7.4375 7.25 -7.75 C 7.019531 -8.070312 6.695312 -8.320312 6.28125 -8.5 C 5.863281 -8.675781 5.390625 -8.765625 4.859375 -8.765625 C 4.335938 -8.765625 3.867188 -8.664062 3.453125 -8.46875 C 3.046875 -8.28125 2.726562 -8.007812 2.5 -7.65625 C 2.269531 -7.3125 2.15625 -6.921875 2.15625 -6.484375 L 2.15625 -3.34375 C 2.15625 -2.894531 2.269531 -2.492188 2.5 -2.140625 C 2.726562 -1.796875 3.050781 -1.523438 3.46875 -1.328125 C 3.882812 -1.128906 4.359375 -1.03125 4.890625 -1.03125 C 5.429688 -1.03125 5.910156 -1.117188 6.328125 -1.296875 C 6.742188 -1.472656 7.066406 -1.71875 7.296875 -2.03125 C 7.535156 -2.34375 7.65625 -2.707031 7.65625 -3.125 C 7.65625 -3.269531 7.644531 -3.445312 7.625 -3.65625 C 7.757812 -3.675781 7.851562 -3.6875 7.90625 -3.6875 C 8.21875 -3.6875 8.46875 -3.597656 8.65625 -3.421875 C 8.851562 -3.242188 8.953125 -3.003906 8.953125 -2.703125 C 8.953125 -2.148438 8.773438 -1.660156 8.421875 -1.234375 C 8.078125 -0.804688 7.597656 -0.472656 6.984375 -0.234375 C 6.378906 0.00390625 5.679688 0.125 4.890625 0.125 Z M 4.890625 0.125 "/></g></g></g><g fill="#ffffff" fill-opacity="1"><g transform="translate(268.110295, 192.749987)"><g><path d="M 1.265625 -8.828125 C 1.265625 -9.179688 1.378906 -9.453125 1.609375 -9.640625 C 1.835938 -9.828125 2.160156 -9.921875 2.578125 -9.921875 L 2.578125 -0.96875 C 2.578125 -0.625 2.460938 -0.351562 2.234375 -0.15625 C 2.003906 0.03125 1.679688 0.125 1.265625 0.125 Z M 1.265625 -8.828125 "/></g></g></g><g fill="#ffffff" fill-opacity="1"><g transform="translate(279.490173, 192.749987)"><g><path d="M 0.984375 -8.796875 C 0.984375 -9.148438 1.09375 -9.425781 1.3125 -9.625 C 1.53125 -9.820312 1.832031 -9.921875 2.21875 -9.921875 L 7.65625 -1.671875 L 7.75 -1.75 L 7.34375 -2.421875 L 7.34375 -9.921875 C 7.78125 -9.921875 8.109375 -9.828125 8.328125 -9.640625 C 8.546875 -9.453125 8.65625 -9.179688 8.65625 -8.828125 L 8.65625 -0.90625 C 8.65625 -0.613281 8.546875 -0.367188 8.328125 -0.171875 C 8.117188 0.0234375 7.851562 0.125 7.53125 0.125 L 1.96875 -8.3125 L 1.875 -8.234375 L 2.28125 -7.5625 L 2.28125 -0.96875 C 2.28125 -0.613281 2.171875 -0.34375 1.953125 -0.15625 C 1.734375 0.03125 1.410156 0.125 0.984375 0.125 Z M 0.984375 -8.796875 "/></g></g></g><g fill="#ffffff" fill-opacity="1"><g transform="translate(296.662822, 192.749987)"><g><path d="M 4.90625 0.125 C 4.113281 0.125 3.410156 -0.0195312 2.796875 -0.3125 C 2.179688 -0.601562 1.703125 -1.015625 1.359375 -1.546875 C 1.015625 -2.078125 0.84375 -2.675781 0.84375 -3.34375 L 0.84375 -6.484375 C 0.84375 -7.148438 1.007812 -7.742188 1.34375 -8.265625 C 1.6875 -8.796875 2.160156 -9.203125 2.765625 -9.484375 C 3.378906 -9.773438 4.078125 -9.921875 4.859375 -9.921875 C 5.640625 -9.921875 6.332031 -9.796875 6.9375 -9.546875 C 7.550781 -9.304688 8.023438 -8.96875 8.359375 -8.53125 C 8.703125 -8.09375 8.875 -7.59375 8.875 -7.03125 C 8.875 -6.75 8.78125 -6.523438 8.59375 -6.359375 C 8.40625 -6.203125 8.160156 -6.125 7.859375 -6.125 C 7.785156 -6.125 7.6875 -6.132812 7.5625 -6.15625 C 7.582031 -6.269531 7.59375 -6.445312 7.59375 -6.6875 C 7.59375 -7.09375 7.476562 -7.453125 7.25 -7.765625 C 7.019531 -8.085938 6.695312 -8.335938 6.28125 -8.515625 C 5.863281 -8.691406 5.390625 -8.78125 4.859375 -8.78125 C 4.335938 -8.78125 3.867188 -8.679688 3.453125 -8.484375 C 3.046875 -8.296875 2.726562 -8.023438 2.5 -7.671875 C 2.269531 -7.328125 2.15625 -6.929688 2.15625 -6.484375 L 2.15625 -3.34375 C 2.15625 -2.894531 2.269531 -2.492188 2.5 -2.140625 C 2.738281 -1.785156 3.066406 -1.507812 3.484375 -1.3125 C 3.898438 -1.113281 4.375 -1.015625 4.90625 -1.015625 C 5.4375 -1.015625 5.90625 -1.101562 6.3125 -1.28125 C 6.726562 -1.457031 7.050781 -1.707031 7.28125 -2.03125 C 7.507812 -2.363281 7.625 -2.738281 7.625 -3.15625 L 7.625 -3.9375 L 5.859375 -3.9375 C 5.578125 -3.9375 5.347656 -4.035156 5.171875 -4.234375 C 4.992188 -4.429688 4.90625 -4.695312 4.90625 -5.03125 L 8.3125 -5.03125 C 8.5 -5.03125 8.648438 -4.972656 8.765625 -4.859375 C 8.890625 -4.742188 8.953125 -4.59375 8.953125 -4.40625 L 8.953125 -3.140625 C 8.953125 -2.503906 8.78125 -1.9375 8.4375 -1.4375 C 8.09375 -0.945312 7.613281 -0.5625 7 -0.28125 C 6.394531 -0.0078125 5.695312 0.125 4.90625 0.125 Z M 4.90625 0.125 "/></g></g></g></svg>