<svg xmlns="http://www.w3.org/2000/svg" xmlns:xlink="http://www.w3.org/1999/xlink" width="170" zoomAndPan="magnify" viewBox="0 0 127.5 37.5" height="50" preserveAspectRatio="xMidYMid meet" version="1.0"><defs><g/><clipPath id="8d3785b852"><path d="M 0.59375 0 L 126.414062 0 L 126.414062 37.007812 L 0.59375 37.007812 Z M 0.59375 0 " clip-rule="nonzero"/></clipPath><clipPath id="367a54ea66"><path d="M 16.972656 4.335938 L 41.394531 4.335938 L 41.394531 32.460938 L 16.972656 32.460938 Z M 16.972656 4.335938 " clip-rule="nonzero"/></clipPath></defs><g clip-path="url(#8d3785b852)"><path fill="#ffffff" d="M 0.59375 0 L 126.414062 0 L 126.414062 37.007812 L 0.59375 37.007812 Z M 0.59375 0 " fill-opacity="1" fill-rule="nonzero"/><path fill="#ffffff" d="M 0.59375 0 L 126.414062 0 L 126.414062 37.007812 L 0.59375 37.007812 Z M 0.59375 0 " fill-opacity="1" fill-rule="nonzero"/></g><g clip-path="url(#367a54ea66)"><path fill="#222831" d="M 28.519531 19.429688 L 22.070312 19.429688 L 22.070312 26.847656 L 17.03125 32.660156 L 16.976562 32.660156 L 16.976562 14.398438 L 22.070312 19.429688 L 22.070312 14.398438 L 32.890625 14.398438 Z M 41.324219 4.699219 L 37.207031 9.433594 L 16.976562 9.433594 L 16.976562 4.335938 L 41.324219 4.335938 Z M 41.324219 4.699219 " fill-opacity="1" fill-rule="nonzero"/></g><g fill="#222831" fill-opacity="1"><g transform="translate(44.699175, 17.157619)"><g><path d="M 0.375 -4.046875 C 0.375 -4.148438 0.414062 -4.238281 0.5 -4.3125 C 0.582031 -4.382812 0.679688 -4.421875 0.796875 -4.421875 L 3.65625 -4.421875 C 3.65625 -4.171875 3.613281 -3.988281 3.53125 -3.875 C 3.445312 -3.757812 3.304688 -3.703125 3.109375 -3.703125 L 1.21875 -3.703125 L 1.21875 -2.625 L 2.90625 -2.625 C 2.90625 -2.375 2.859375 -2.191406 2.765625 -2.078125 C 2.679688 -1.960938 2.546875 -1.90625 2.359375 -1.90625 L 1.21875 -1.90625 L 1.21875 -0.546875 C 1.21875 -0.335938 1.148438 -0.179688 1.015625 -0.078125 C 0.878906 0.015625 0.664062 0.0625 0.375 0.0625 Z M 0.375 -4.046875 "/></g></g></g><g fill="#222831" fill-opacity="1"><g transform="translate(48.58738, 17.157619)"><g><path d="M 1.421875 0.0625 C 1.203125 0.0625 1.003906 0.0195312 0.828125 -0.0625 C 0.648438 -0.15625 0.503906 -0.28125 0.390625 -0.4375 C 0.285156 -0.59375 0.234375 -0.78125 0.234375 -1 C 0.234375 -1.21875 0.289062 -1.40625 0.40625 -1.5625 C 0.519531 -1.726562 0.675781 -1.851562 0.875 -1.9375 C 1.070312 -2.03125 1.289062 -2.078125 1.53125 -2.078125 C 1.71875 -2.078125 1.890625 -2.046875 2.046875 -1.984375 C 2.203125 -1.921875 2.34375 -1.828125 2.46875 -1.703125 L 2.5 -1.734375 C 2.46875 -1.773438 2.40625 -1.832031 2.3125 -1.90625 L 2.3125 -2.03125 C 2.3125 -2.207031 2.25 -2.34375 2.125 -2.4375 C 2 -2.539062 1.828125 -2.59375 1.609375 -2.59375 C 1.222656 -2.59375 0.9375 -2.453125 0.75 -2.171875 C 0.65625 -2.203125 0.578125 -2.25 0.515625 -2.3125 C 0.453125 -2.375 0.421875 -2.445312 0.421875 -2.53125 C 0.421875 -2.65625 0.476562 -2.769531 0.59375 -2.875 C 0.707031 -2.976562 0.859375 -3.0625 1.046875 -3.125 C 1.242188 -3.1875 1.457031 -3.21875 1.6875 -3.21875 C 2.132812 -3.21875 2.476562 -3.113281 2.71875 -2.90625 C 2.96875 -2.695312 3.09375 -2.414062 3.09375 -2.0625 L 3.09375 -0.46875 C 3.09375 -0.289062 3.03125 -0.15625 2.90625 -0.0625 C 2.789062 0.0195312 2.609375 0.0625 2.359375 0.0625 L 2.359375 -0.203125 C 2.429688 -0.273438 2.476562 -0.328125 2.5 -0.359375 L 2.46875 -0.390625 C 2.332031 -0.242188 2.1875 -0.128906 2.03125 -0.046875 C 1.875 0.0234375 1.671875 0.0625 1.421875 0.0625 Z M 1.625 -0.515625 C 1.84375 -0.515625 2.015625 -0.554688 2.140625 -0.640625 C 2.265625 -0.722656 2.328125 -0.84375 2.328125 -1 C 2.328125 -1.15625 2.265625 -1.273438 2.140625 -1.359375 C 2.015625 -1.453125 1.84375 -1.5 1.625 -1.5 C 1.4375 -1.5 1.285156 -1.453125 1.171875 -1.359375 C 1.054688 -1.273438 1 -1.15625 1 -1 C 1 -0.84375 1.050781 -0.722656 1.15625 -0.640625 C 1.269531 -0.554688 1.425781 -0.515625 1.625 -0.515625 Z M 1.625 -0.515625 "/></g></g></g><g fill="#222831" fill-opacity="1"><g transform="translate(52.013309, 17.157619)"><g><path d="M 1.65625 0.0625 C 1.25 0.0625 0.921875 -0.0078125 0.671875 -0.15625 C 0.429688 -0.300781 0.304688 -0.5 0.296875 -0.75 C 0.296875 -0.851562 0.335938 -0.941406 0.421875 -1.015625 C 0.515625 -1.085938 0.65625 -1.125 0.84375 -1.125 C 0.882812 -0.9375 0.972656 -0.789062 1.109375 -0.6875 C 1.253906 -0.59375 1.425781 -0.546875 1.625 -0.546875 C 1.832031 -0.546875 2 -0.570312 2.125 -0.625 C 2.25 -0.6875 2.3125 -0.769531 2.3125 -0.875 C 2.3125 -0.976562 2.257812 -1.0625 2.15625 -1.125 C 2.0625 -1.195312 1.867188 -1.265625 1.578125 -1.328125 C 1.253906 -1.410156 1.003906 -1.488281 0.828125 -1.5625 C 0.660156 -1.632812 0.535156 -1.726562 0.453125 -1.84375 C 0.367188 -1.96875 0.328125 -2.128906 0.328125 -2.328125 C 0.328125 -2.597656 0.4375 -2.8125 0.65625 -2.96875 C 0.882812 -3.132812 1.195312 -3.21875 1.59375 -3.21875 C 1.976562 -3.21875 2.296875 -3.148438 2.546875 -3.015625 C 2.804688 -2.878906 2.9375 -2.695312 2.9375 -2.46875 C 2.9375 -2.351562 2.894531 -2.265625 2.8125 -2.203125 C 2.726562 -2.148438 2.585938 -2.125 2.390625 -2.125 C 2.347656 -2.289062 2.265625 -2.414062 2.140625 -2.5 C 2.023438 -2.582031 1.863281 -2.625 1.65625 -2.625 C 1.488281 -2.625 1.347656 -2.597656 1.234375 -2.546875 C 1.117188 -2.492188 1.0625 -2.421875 1.0625 -2.328125 C 1.0625 -2.242188 1.109375 -2.175781 1.203125 -2.125 C 1.304688 -2.070312 1.476562 -2.019531 1.71875 -1.96875 C 2.1875 -1.863281 2.523438 -1.726562 2.734375 -1.5625 C 2.953125 -1.394531 3.0625 -1.164062 3.0625 -0.875 C 3.0625 -0.59375 2.9375 -0.363281 2.6875 -0.1875 C 2.4375 -0.0195312 2.09375 0.0625 1.65625 0.0625 Z M 1.65625 0.0625 "/></g></g></g><g fill="#222831" fill-opacity="1"><g transform="translate(55.274587, 17.157619)"><g><path d="M 1.875 0.0625 C 1.53125 0.0625 1.273438 -0.0351562 1.109375 -0.234375 C 0.953125 -0.429688 0.875 -0.6875 0.875 -1 L 0.875 -2.578125 L 0.21875 -2.578125 C 0.21875 -2.773438 0.253906 -2.921875 0.328125 -3.015625 C 0.410156 -3.109375 0.515625 -3.15625 0.640625 -3.15625 L 0.890625 -3.15625 L 0.890625 -3.6875 C 0.890625 -3.863281 0.953125 -3.988281 1.078125 -4.0625 C 1.203125 -4.132812 1.394531 -4.171875 1.65625 -4.171875 L 1.65625 -3.15625 L 2.5 -3.15625 C 2.5 -2.945312 2.457031 -2.796875 2.375 -2.703125 C 2.289062 -2.617188 2.160156 -2.578125 1.984375 -2.578125 L 1.671875 -2.578125 L 1.671875 -1.03125 C 1.671875 -0.882812 1.695312 -0.78125 1.75 -0.71875 C 1.800781 -0.65625 1.898438 -0.625 2.046875 -0.625 C 2.191406 -0.625 2.335938 -0.664062 2.484375 -0.75 C 2.523438 -0.707031 2.554688 -0.65625 2.578125 -0.59375 C 2.609375 -0.539062 2.625 -0.488281 2.625 -0.4375 C 2.625 -0.300781 2.554688 -0.179688 2.421875 -0.078125 C 2.296875 0.015625 2.113281 0.0625 1.875 0.0625 Z M 1.875 0.0625 "/></g></g></g><g fill="#222831" fill-opacity="1"><g transform="translate(58.124248, 17.157619)"><g/></g></g><g fill="#222831" fill-opacity="1"><g transform="translate(59.758053, 17.157619)"><g><path d="M 1.703125 -3.703125 L 0.171875 -3.703125 C 0.171875 -4.179688 0.394531 -4.421875 0.84375 -4.421875 L 4.078125 -4.421875 C 4.078125 -3.941406 3.851562 -3.703125 3.40625 -3.703125 L 2.546875 -3.703125 L 2.546875 -0.5625 C 2.546875 -0.363281 2.472656 -0.207031 2.328125 -0.09375 C 2.191406 0.0078125 1.984375 0.0625 1.703125 0.0625 Z M 1.703125 -3.703125 "/></g></g></g><g fill="#222831" fill-opacity="1"><g transform="translate(64.007216, 17.157619)"><g><path d="M 0.375 -3.875 C 0.375 -4.070312 0.441406 -4.222656 0.578125 -4.328125 C 0.710938 -4.429688 0.90625 -4.484375 1.15625 -4.484375 L 1.15625 -2.84375 C 1.101562 -2.78125 1.050781 -2.710938 1 -2.640625 L 1.046875 -2.609375 C 1.335938 -3.015625 1.707031 -3.21875 2.15625 -3.21875 C 2.375 -3.21875 2.5625 -3.171875 2.71875 -3.078125 C 2.882812 -2.984375 3.015625 -2.847656 3.109375 -2.671875 C 3.203125 -2.503906 3.25 -2.316406 3.25 -2.109375 L 3.25 -0.421875 C 3.25 -0.253906 3.179688 -0.128906 3.046875 -0.046875 C 2.921875 0.0234375 2.722656 0.0625 2.453125 0.0625 L 2.453125 -2 C 2.453125 -2.15625 2.40625 -2.28125 2.3125 -2.375 C 2.21875 -2.476562 2.078125 -2.53125 1.890625 -2.53125 C 1.679688 -2.53125 1.503906 -2.460938 1.359375 -2.328125 C 1.222656 -2.203125 1.15625 -2.039062 1.15625 -1.84375 L 1.15625 -0.421875 C 1.15625 -0.253906 1.085938 -0.128906 0.953125 -0.046875 C 0.828125 0.0234375 0.632812 0.0625 0.375 0.0625 Z M 0.375 -3.875 "/></g></g></g><g fill="#222831" fill-opacity="1"><g transform="translate(67.566127, 17.157619)"><g><path d="M 2 -2.53125 C 1.75 -2.53125 1.546875 -2.460938 1.390625 -2.328125 C 1.234375 -2.203125 1.15625 -2.039062 1.15625 -1.84375 L 1.15625 -0.421875 C 1.15625 -0.253906 1.09375 -0.128906 0.96875 -0.046875 C 0.84375 0.0234375 0.644531 0.0625 0.375 0.0625 L 0.375 -2.609375 C 0.375 -2.804688 0.4375 -2.957031 0.5625 -3.0625 C 0.6875 -3.164062 0.875 -3.21875 1.125 -3.21875 L 1.125 -2.84375 C 1.0625 -2.769531 1.007812 -2.703125 0.96875 -2.640625 L 1.015625 -2.609375 C 1.273438 -3.015625 1.609375 -3.21875 2.015625 -3.21875 C 2.191406 -3.21875 2.328125 -3.171875 2.421875 -3.078125 C 2.515625 -2.984375 2.5625 -2.863281 2.5625 -2.71875 C 2.5625 -2.613281 2.53125 -2.519531 2.46875 -2.4375 C 2.351562 -2.5 2.195312 -2.53125 2 -2.53125 Z M 2 -2.53125 "/></g></g></g><g fill="#222831" fill-opacity="1"><g transform="translate(70.301804, 17.157619)"><g><path d="M 0.90625 -3.515625 C 0.75 -3.515625 0.617188 -3.5625 0.515625 -3.65625 C 0.421875 -3.75 0.375 -3.863281 0.375 -4 C 0.375 -4.144531 0.421875 -4.257812 0.515625 -4.34375 C 0.617188 -4.4375 0.75 -4.484375 0.90625 -4.484375 C 1.050781 -4.484375 1.171875 -4.4375 1.265625 -4.34375 C 1.367188 -4.257812 1.421875 -4.144531 1.421875 -4 C 1.421875 -3.863281 1.367188 -3.75 1.265625 -3.65625 C 1.171875 -3.5625 1.050781 -3.515625 0.90625 -3.515625 Z M 0.5 -2.734375 C 0.5 -2.910156 0.5625 -3.035156 0.6875 -3.109375 C 0.820312 -3.179688 1.023438 -3.21875 1.296875 -3.21875 L 1.296875 -0.421875 C 1.296875 -0.253906 1.226562 -0.128906 1.09375 -0.046875 C 0.96875 0.0234375 0.769531 0.0625 0.5 0.0625 Z M 0.5 -2.734375 "/></g></g></g><g fill="#222831" fill-opacity="1"><g transform="translate(72.100256, 17.157619)"><g><path d="M 1.796875 0.0625 C 1.691406 0.0625 1.601562 0.0390625 1.53125 0 C 1.457031 -0.0507812 1.40625 -0.117188 1.375 -0.203125 L 0.234375 -3.15625 C 0.265625 -3.175781 0.316406 -3.191406 0.390625 -3.203125 C 0.460938 -3.210938 0.523438 -3.21875 0.578125 -3.21875 C 0.703125 -3.21875 0.8125 -3.191406 0.90625 -3.140625 C 1.007812 -3.085938 1.078125 -3.015625 1.109375 -2.921875 L 1.765625 -0.953125 L 1.65625 -0.65625 L 1.703125 -0.640625 L 2.484375 -2.921875 C 2.515625 -3.015625 2.578125 -3.085938 2.671875 -3.140625 C 2.773438 -3.191406 2.890625 -3.21875 3.015625 -3.21875 C 3.066406 -3.21875 3.128906 -3.210938 3.203125 -3.203125 C 3.273438 -3.191406 3.328125 -3.175781 3.359375 -3.15625 L 2.21875 -0.203125 C 2.1875 -0.117188 2.132812 -0.0507812 2.0625 0 C 1.988281 0.0390625 1.898438 0.0625 1.796875 0.0625 Z M 1.796875 0.0625 "/></g></g></g><g fill="#222831" fill-opacity="1"><g transform="translate(75.697163, 17.157619)"><g><path d="M 1.75 0.0625 C 1.488281 0.0625 1.25 0.0078125 1.03125 -0.09375 C 0.820312 -0.195312 0.648438 -0.335938 0.515625 -0.515625 C 0.390625 -0.703125 0.328125 -0.90625 0.328125 -1.125 L 0.328125 -1.96875 C 0.328125 -2.207031 0.394531 -2.421875 0.53125 -2.609375 C 0.664062 -2.796875 0.835938 -2.941406 1.046875 -3.046875 C 1.265625 -3.160156 1.503906 -3.21875 1.765625 -3.21875 C 2.003906 -3.21875 2.226562 -3.164062 2.4375 -3.0625 C 2.65625 -2.957031 2.820312 -2.8125 2.9375 -2.625 C 3.0625 -2.445312 3.125 -2.238281 3.125 -2 L 3.125 -1.65625 C 3.125 -1.5625 3.085938 -1.484375 3.015625 -1.421875 C 2.953125 -1.359375 2.867188 -1.328125 2.765625 -1.328125 L 1.09375 -1.328125 L 1.09375 -1.1875 C 1.09375 -1 1.148438 -0.847656 1.265625 -0.734375 C 1.378906 -0.617188 1.546875 -0.5625 1.765625 -0.5625 C 1.972656 -0.5625 2.128906 -0.609375 2.234375 -0.703125 C 2.335938 -0.796875 2.390625 -0.914062 2.390625 -1.0625 C 2.460938 -1.070312 2.515625 -1.078125 2.546875 -1.078125 C 2.703125 -1.078125 2.820312 -1.039062 2.90625 -0.96875 C 3 -0.90625 3.046875 -0.8125 3.046875 -0.6875 C 3.046875 -0.5625 2.988281 -0.441406 2.875 -0.328125 C 2.757812 -0.210938 2.601562 -0.117188 2.40625 -0.046875 C 2.207031 0.0234375 1.988281 0.0625 1.75 0.0625 Z M 2.40625 -1.890625 L 2.40625 -2 C 2.40625 -2.175781 2.34375 -2.316406 2.21875 -2.421875 C 2.101562 -2.535156 1.945312 -2.59375 1.75 -2.59375 C 1.5625 -2.59375 1.40625 -2.539062 1.28125 -2.4375 C 1.15625 -2.332031 1.09375 -2.1875 1.09375 -2 L 1.09375 -1.890625 Z M 2.40625 -1.890625 "/></g></g></g><g fill="#222831" fill-opacity="1"><g transform="translate(79.059764, 17.157619)"><g/></g></g><g fill="#222831" fill-opacity="1"><g transform="translate(80.69357, 17.157619)"><g><path d="M 0.375 -3.859375 C 0.375 -4.054688 0.441406 -4.207031 0.578125 -4.3125 C 0.722656 -4.425781 0.9375 -4.484375 1.21875 -4.484375 L 1.21875 -2.59375 L 3.109375 -2.59375 L 3.109375 -3.859375 C 3.109375 -4.066406 3.179688 -4.222656 3.328125 -4.328125 C 3.472656 -4.429688 3.6875 -4.484375 3.96875 -4.484375 L 3.96875 -0.5625 C 3.96875 -0.363281 3.894531 -0.207031 3.75 -0.09375 C 3.601562 0.0078125 3.390625 0.0625 3.109375 0.0625 L 3.109375 -1.859375 L 1.21875 -1.859375 L 1.21875 -0.5625 C 1.21875 -0.363281 1.144531 -0.207031 1 -0.09375 C 0.851562 0.0078125 0.644531 0.0625 0.375 0.0625 Z M 0.375 -3.859375 "/></g></g></g><g fill="#222831" fill-opacity="1"><g transform="translate(85.031388, 17.157619)"><g><path d="M 1.703125 0.0625 C 1.421875 0.0625 1.171875 0.015625 0.953125 -0.078125 C 0.734375 -0.179688 0.554688 -0.320312 0.421875 -0.5 C 0.296875 -0.675781 0.234375 -0.878906 0.234375 -1.109375 L 0.234375 -2 C 0.234375 -2.226562 0.296875 -2.429688 0.421875 -2.609375 C 0.546875 -2.796875 0.71875 -2.941406 0.9375 -3.046875 C 1.15625 -3.160156 1.410156 -3.21875 1.703125 -3.21875 C 1.984375 -3.21875 2.234375 -3.160156 2.453125 -3.046875 C 2.671875 -2.941406 2.84375 -2.796875 2.96875 -2.609375 C 3.09375 -2.429688 3.15625 -2.226562 3.15625 -2 L 3.15625 -1.109375 C 3.15625 -0.878906 3.085938 -0.675781 2.953125 -0.5 C 2.828125 -0.320312 2.65625 -0.179688 2.4375 -0.078125 C 2.21875 0.015625 1.972656 0.0625 1.703125 0.0625 Z M 1.703125 -0.625 C 1.910156 -0.625 2.070312 -0.671875 2.1875 -0.765625 C 2.3125 -0.859375 2.375 -0.988281 2.375 -1.15625 L 2.375 -1.96875 C 2.375 -2.132812 2.3125 -2.269531 2.1875 -2.375 C 2.070312 -2.488281 1.910156 -2.546875 1.703125 -2.546875 C 1.492188 -2.546875 1.328125 -2.488281 1.203125 -2.375 C 1.078125 -2.269531 1.015625 -2.132812 1.015625 -1.96875 L 1.015625 -1.15625 C 1.015625 -0.988281 1.078125 -0.859375 1.203125 -0.765625 C 1.328125 -0.671875 1.492188 -0.625 1.703125 -0.625 Z M 1.703125 -0.625 "/></g></g></g><g fill="#222831" fill-opacity="1"><g transform="translate(88.431985, 17.157619)"><g><path d="M 1.40625 0.0625 C 1.0625 0.0625 0.796875 -0.0351562 0.609375 -0.234375 C 0.429688 -0.441406 0.34375 -0.695312 0.34375 -1 L 0.34375 -4 C 0.34375 -4.175781 0.40625 -4.300781 0.53125 -4.375 C 0.664062 -4.445312 0.867188 -4.484375 1.140625 -4.484375 L 1.140625 -1.03125 C 1.140625 -0.894531 1.171875 -0.789062 1.234375 -0.71875 C 1.296875 -0.65625 1.394531 -0.625 1.53125 -0.625 C 1.6875 -0.625 1.84375 -0.664062 2 -0.75 C 2.039062 -0.707031 2.070312 -0.65625 2.09375 -0.59375 C 2.125 -0.539062 2.140625 -0.488281 2.140625 -0.4375 C 2.140625 -0.300781 2.078125 -0.179688 1.953125 -0.078125 C 1.828125 0.015625 1.644531 0.0625 1.40625 0.0625 Z M 1.40625 0.0625 "/></g></g></g><g fill="#222831" fill-opacity="1"><g transform="translate(90.743377, 17.157619)"><g><path d="M 1.53125 0.0625 C 1.3125 0.0625 1.109375 0.015625 0.921875 -0.078125 C 0.742188 -0.179688 0.597656 -0.316406 0.484375 -0.484375 C 0.378906 -0.660156 0.328125 -0.859375 0.328125 -1.078125 L 0.328125 -2.078125 C 0.328125 -2.296875 0.382812 -2.492188 0.5 -2.671875 C 0.613281 -2.847656 0.765625 -2.984375 0.953125 -3.078125 C 1.148438 -3.171875 1.367188 -3.21875 1.609375 -3.21875 C 1.765625 -3.21875 1.925781 -3.1875 2.09375 -3.125 C 2.257812 -3.0625 2.398438 -2.972656 2.515625 -2.859375 L 2.546875 -2.890625 C 2.523438 -2.921875 2.476562 -2.960938 2.40625 -3.015625 L 2.40625 -3.953125 C 2.40625 -4.117188 2.46875 -4.25 2.59375 -4.34375 C 2.726562 -4.4375 2.929688 -4.484375 3.203125 -4.484375 L 3.203125 -0.484375 C 3.203125 -0.328125 3.144531 -0.195312 3.03125 -0.09375 C 2.914062 0.0078125 2.734375 0.0625 2.484375 0.0625 L 2.484375 -0.296875 C 2.535156 -0.359375 2.570312 -0.410156 2.59375 -0.453125 L 2.5625 -0.484375 C 2.4375 -0.304688 2.289062 -0.171875 2.125 -0.078125 C 1.96875 0.015625 1.769531 0.0625 1.53125 0.0625 Z M 1.765625 -0.625 C 1.960938 -0.625 2.117188 -0.671875 2.234375 -0.765625 C 2.359375 -0.859375 2.421875 -0.972656 2.421875 -1.109375 L 2.421875 -2.0625 C 2.421875 -2.195312 2.359375 -2.304688 2.234375 -2.390625 C 2.117188 -2.484375 1.960938 -2.53125 1.765625 -2.53125 C 1.554688 -2.53125 1.394531 -2.488281 1.28125 -2.40625 C 1.175781 -2.320312 1.125 -2.195312 1.125 -2.03125 L 1.125 -1.140625 C 1.125 -0.972656 1.175781 -0.84375 1.28125 -0.75 C 1.394531 -0.664062 1.554688 -0.625 1.765625 -0.625 Z M 1.765625 -0.625 "/></g></g></g><g fill="#222831" fill-opacity="1"><g transform="translate(94.321285, 17.157619)"><g><path d="M 0.90625 -3.515625 C 0.75 -3.515625 0.617188 -3.5625 0.515625 -3.65625 C 0.421875 -3.75 0.375 -3.863281 0.375 -4 C 0.375 -4.144531 0.421875 -4.257812 0.515625 -4.34375 C 0.617188 -4.4375 0.75 -4.484375 0.90625 -4.484375 C 1.050781 -4.484375 1.171875 -4.4375 1.265625 -4.34375 C 1.367188 -4.257812 1.421875 -4.144531 1.421875 -4 C 1.421875 -3.863281 1.367188 -3.75 1.265625 -3.65625 C 1.171875 -3.5625 1.050781 -3.515625 0.90625 -3.515625 Z M 0.5 -2.734375 C 0.5 -2.910156 0.5625 -3.035156 0.6875 -3.109375 C 0.820312 -3.179688 1.023438 -3.21875 1.296875 -3.21875 L 1.296875 -0.421875 C 1.296875 -0.253906 1.226562 -0.128906 1.09375 -0.046875 C 0.96875 0.0234375 0.769531 0.0625 0.5 0.0625 Z M 0.5 -2.734375 "/></g></g></g><g fill="#222831" fill-opacity="1"><g transform="translate(96.119737, 17.157619)"><g><path d="M 0.375 -2.609375 C 0.375 -2.804688 0.4375 -2.957031 0.5625 -3.0625 C 0.6875 -3.164062 0.875 -3.21875 1.125 -3.21875 L 1.125 -2.84375 C 1.070312 -2.78125 1.019531 -2.710938 0.96875 -2.640625 L 1.015625 -2.609375 C 1.140625 -2.796875 1.300781 -2.941406 1.5 -3.046875 C 1.695312 -3.160156 1.914062 -3.21875 2.15625 -3.21875 C 2.375 -3.21875 2.5625 -3.171875 2.71875 -3.078125 C 2.882812 -2.984375 3.015625 -2.847656 3.109375 -2.671875 C 3.203125 -2.503906 3.25 -2.316406 3.25 -2.109375 L 3.25 -0.421875 C 3.25 -0.253906 3.179688 -0.128906 3.046875 -0.046875 C 2.921875 0.0234375 2.722656 0.0625 2.453125 0.0625 L 2.453125 -2 C 2.453125 -2.15625 2.40625 -2.28125 2.3125 -2.375 C 2.21875 -2.476562 2.078125 -2.53125 1.890625 -2.53125 C 1.679688 -2.53125 1.503906 -2.460938 1.359375 -2.328125 C 1.222656 -2.203125 1.15625 -2.039062 1.15625 -1.84375 L 1.15625 -0.421875 C 1.15625 -0.253906 1.09375 -0.128906 0.96875 -0.046875 C 0.84375 0.0234375 0.644531 0.0625 0.375 0.0625 Z M 0.375 -2.609375 "/></g></g></g><g fill="#222831" fill-opacity="1"><g transform="translate(99.697642, 17.157619)"><g><path d="M 1.671875 1.328125 C 1.421875 1.328125 1.195312 1.289062 1 1.21875 C 0.8125 1.144531 0.660156 1.050781 0.546875 0.9375 C 0.441406 0.820312 0.390625 0.691406 0.390625 0.546875 C 0.390625 0.398438 0.4375 0.296875 0.53125 0.234375 C 0.632812 0.179688 0.78125 0.15625 0.96875 0.15625 C 0.976562 0.320312 1.039062 0.453125 1.15625 0.546875 C 1.28125 0.648438 1.453125 0.703125 1.671875 0.703125 C 1.921875 0.703125 2.097656 0.640625 2.203125 0.515625 C 2.304688 0.390625 2.359375 0.21875 2.359375 0 L 2.359375 -0.203125 C 2.421875 -0.253906 2.46875 -0.300781 2.5 -0.34375 L 2.46875 -0.375 C 2.363281 -0.257812 2.21875 -0.164062 2.03125 -0.09375 C 1.851562 -0.03125 1.679688 0 1.515625 0 C 1.285156 0 1.078125 -0.046875 0.890625 -0.140625 C 0.703125 -0.242188 0.550781 -0.378906 0.4375 -0.546875 C 0.332031 -0.722656 0.28125 -0.921875 0.28125 -1.140625 L 0.28125 -2.078125 C 0.28125 -2.285156 0.335938 -2.476562 0.453125 -2.65625 C 0.566406 -2.832031 0.710938 -2.96875 0.890625 -3.0625 C 1.078125 -3.164062 1.273438 -3.21875 1.484375 -3.21875 C 1.710938 -3.21875 1.910156 -3.171875 2.078125 -3.078125 C 2.242188 -2.984375 2.394531 -2.851562 2.53125 -2.6875 L 2.546875 -2.703125 C 2.523438 -2.742188 2.488281 -2.800781 2.4375 -2.875 C 2.4375 -3.101562 2.675781 -3.21875 3.15625 -3.21875 L 3.15625 -0.109375 C 3.15625 0.171875 3.09375 0.414062 2.96875 0.625 C 2.84375 0.84375 2.664062 1.015625 2.4375 1.140625 C 2.207031 1.265625 1.953125 1.328125 1.671875 1.328125 Z M 1.71875 -0.6875 C 1.90625 -0.6875 2.0625 -0.734375 2.1875 -0.828125 C 2.3125 -0.921875 2.375 -1.035156 2.375 -1.171875 L 2.375 -2.0625 C 2.375 -2.195312 2.3125 -2.3125 2.1875 -2.40625 C 2.0625 -2.5 1.90625 -2.546875 1.71875 -2.546875 C 1.507812 -2.546875 1.347656 -2.5 1.234375 -2.40625 C 1.128906 -2.320312 1.078125 -2.195312 1.078125 -2.03125 L 1.078125 -1.203125 C 1.078125 -1.035156 1.128906 -0.90625 1.234375 -0.8125 C 1.347656 -0.726562 1.507812 -0.6875 1.71875 -0.6875 Z M 1.71875 -0.6875 "/></g></g></g><g fill="#222831" fill-opacity="1"><g transform="translate(103.20589, 17.157619)"><g><path d="M 1.65625 0.0625 C 1.25 0.0625 0.921875 -0.0078125 0.671875 -0.15625 C 0.429688 -0.300781 0.304688 -0.5 0.296875 -0.75 C 0.296875 -0.851562 0.335938 -0.941406 0.421875 -1.015625 C 0.515625 -1.085938 0.65625 -1.125 0.84375 -1.125 C 0.882812 -0.9375 0.972656 -0.789062 1.109375 -0.6875 C 1.253906 -0.59375 1.425781 -0.546875 1.625 -0.546875 C 1.832031 -0.546875 2 -0.570312 2.125 -0.625 C 2.25 -0.6875 2.3125 -0.769531 2.3125 -0.875 C 2.3125 -0.976562 2.257812 -1.0625 2.15625 -1.125 C 2.0625 -1.195312 1.867188 -1.265625 1.578125 -1.328125 C 1.253906 -1.410156 1.003906 -1.488281 0.828125 -1.5625 C 0.660156 -1.632812 0.535156 -1.726562 0.453125 -1.84375 C 0.367188 -1.96875 0.328125 -2.128906 0.328125 -2.328125 C 0.328125 -2.597656 0.4375 -2.8125 0.65625 -2.96875 C 0.882812 -3.132812 1.195312 -3.21875 1.59375 -3.21875 C 1.976562 -3.21875 2.296875 -3.148438 2.546875 -3.015625 C 2.804688 -2.878906 2.9375 -2.695312 2.9375 -2.46875 C 2.9375 -2.351562 2.894531 -2.265625 2.8125 -2.203125 C 2.726562 -2.148438 2.585938 -2.125 2.390625 -2.125 C 2.347656 -2.289062 2.265625 -2.414062 2.140625 -2.5 C 2.023438 -2.582031 1.863281 -2.625 1.65625 -2.625 C 1.488281 -2.625 1.347656 -2.597656 1.234375 -2.546875 C 1.117188 -2.492188 1.0625 -2.421875 1.0625 -2.328125 C 1.0625 -2.242188 1.109375 -2.175781 1.203125 -2.125 C 1.304688 -2.070312 1.476562 -2.019531 1.71875 -1.96875 C 2.1875 -1.863281 2.523438 -1.726562 2.734375 -1.5625 C 2.953125 -1.394531 3.0625 -1.164062 3.0625 -0.875 C 3.0625 -0.59375 2.9375 -0.363281 2.6875 -0.1875 C 2.4375 -0.0195312 2.09375 0.0625 1.65625 0.0625 Z M 1.65625 0.0625 "/></g></g></g><g fill="#222831" fill-opacity="1"><g transform="translate(58.794152, 23.733367)"><g><path d="M 0.203125 -1.921875 C 0.203125 -1.960938 0.210938 -1.992188 0.234375 -2.015625 C 0.265625 -2.046875 0.300781 -2.0625 0.34375 -2.0625 L 1.65625 -2.0625 C 1.65625 -1.976562 1.640625 -1.914062 1.609375 -1.875 C 1.578125 -1.832031 1.523438 -1.8125 1.453125 -1.8125 L 0.484375 -1.8125 L 0.484375 -1.171875 L 1.296875 -1.171875 C 1.296875 -1.085938 1.28125 -1.023438 1.25 -0.984375 C 1.21875 -0.953125 1.171875 -0.9375 1.109375 -0.9375 L 0.484375 -0.9375 L 0.484375 -0.203125 C 0.484375 -0.117188 0.457031 -0.0546875 0.40625 -0.015625 C 0.363281 0.015625 0.296875 0.03125 0.203125 0.03125 Z M 0.203125 -1.921875 "/></g></g></g><g fill="#222831" fill-opacity="1"><g transform="translate(62.145517, 23.733367)"><g><path d="M 0.265625 -1.859375 C 0.265625 -1.929688 0.285156 -1.984375 0.328125 -2.015625 C 0.378906 -2.054688 0.453125 -2.078125 0.546875 -2.078125 L 0.546875 -0.203125 C 0.546875 -0.128906 0.519531 -0.0703125 0.46875 -0.03125 C 0.414062 0.0078125 0.347656 0.03125 0.265625 0.03125 Z M 0.265625 -1.859375 "/></g></g></g><g fill="#222831" fill-opacity="1"><g transform="translate(64.540024, 23.733367)"><g><path d="M 0.203125 -1.84375 C 0.203125 -1.914062 0.222656 -1.972656 0.265625 -2.015625 C 0.316406 -2.054688 0.382812 -2.078125 0.46875 -2.078125 L 1.609375 -0.34375 L 1.625 -0.375 L 1.546875 -0.515625 L 1.546875 -2.078125 C 1.628906 -2.078125 1.691406 -2.054688 1.734375 -2.015625 C 1.785156 -1.984375 1.8125 -1.929688 1.8125 -1.859375 L 1.8125 -0.1875 C 1.8125 -0.125 1.789062 -0.0703125 1.75 -0.03125 C 1.707031 0.0078125 1.648438 0.03125 1.578125 0.03125 L 0.421875 -1.75 L 0.390625 -1.734375 L 0.484375 -1.59375 L 0.484375 -0.203125 C 0.484375 -0.128906 0.457031 -0.0703125 0.40625 -0.03125 C 0.363281 0.0078125 0.296875 0.03125 0.203125 0.03125 Z M 0.203125 -1.84375 "/></g></g></g><g fill="#222831" fill-opacity="1"><g transform="translate(68.153421, 23.733367)"><g><path d="M 0.3125 0.03125 C 0.257812 0.0195312 0.210938 -0.00390625 0.171875 -0.046875 C 0.140625 -0.0859375 0.125 -0.132812 0.125 -0.1875 C 0.125 -0.226562 0.132812 -0.269531 0.15625 -0.3125 L 0.859375 -2 C 0.878906 -2.050781 0.925781 -2.078125 1 -2.078125 C 1.0625 -2.078125 1.101562 -2.050781 1.125 -2 L 1.828125 -0.3125 C 1.847656 -0.269531 1.859375 -0.226562 1.859375 -0.1875 C 1.859375 -0.132812 1.835938 -0.0859375 1.796875 -0.046875 C 1.765625 -0.00390625 1.722656 0.0195312 1.671875 0.03125 L 1.421875 -0.59375 L 0.578125 -0.59375 Z M 1.328125 -0.828125 L 0.953125 -1.78125 L 0.921875 -1.78125 L 0.984375 -1.640625 L 0.65625 -0.828125 Z M 1.328125 -0.828125 "/></g></g></g><g fill="#222831" fill-opacity="1"><g transform="translate(71.734431, 23.733367)"><g><path d="M 0.203125 -1.84375 C 0.203125 -1.914062 0.222656 -1.972656 0.265625 -2.015625 C 0.316406 -2.054688 0.382812 -2.078125 0.46875 -2.078125 L 1.609375 -0.34375 L 1.625 -0.375 L 1.546875 -0.515625 L 1.546875 -2.078125 C 1.628906 -2.078125 1.691406 -2.054688 1.734375 -2.015625 C 1.785156 -1.984375 1.8125 -1.929688 1.8125 -1.859375 L 1.8125 -0.1875 C 1.8125 -0.125 1.789062 -0.0703125 1.75 -0.03125 C 1.707031 0.0078125 1.648438 0.03125 1.578125 0.03125 L 0.421875 -1.75 L 0.390625 -1.734375 L 0.484375 -1.59375 L 0.484375 -0.203125 C 0.484375 -0.128906 0.457031 -0.0703125 0.40625 -0.03125 C 0.363281 0.0078125 0.296875 0.03125 0.203125 0.03125 Z M 0.203125 -1.84375 "/></g></g></g><g fill="#222831" fill-opacity="1"><g transform="translate(75.34783, 23.733367)"><g><path d="M 1.03125 0.03125 C 0.863281 0.03125 0.710938 0 0.578125 -0.0625 C 0.453125 -0.125 0.351562 -0.207031 0.28125 -0.3125 C 0.207031 -0.425781 0.171875 -0.554688 0.171875 -0.703125 L 0.171875 -1.359375 C 0.171875 -1.503906 0.207031 -1.628906 0.28125 -1.734375 C 0.351562 -1.847656 0.453125 -1.929688 0.578125 -1.984375 C 0.703125 -2.046875 0.847656 -2.078125 1.015625 -2.078125 C 1.179688 -2.078125 1.328125 -2.050781 1.453125 -2 C 1.578125 -1.945312 1.675781 -1.875 1.75 -1.78125 C 1.820312 -1.695312 1.859375 -1.59375 1.859375 -1.46875 C 1.859375 -1.414062 1.835938 -1.367188 1.796875 -1.328125 C 1.765625 -1.296875 1.710938 -1.28125 1.640625 -1.28125 C 1.628906 -1.28125 1.613281 -1.285156 1.59375 -1.296875 C 1.59375 -1.316406 1.59375 -1.351562 1.59375 -1.40625 C 1.59375 -1.488281 1.566406 -1.5625 1.515625 -1.625 C 1.472656 -1.695312 1.40625 -1.75 1.3125 -1.78125 C 1.226562 -1.820312 1.128906 -1.84375 1.015625 -1.84375 C 0.910156 -1.84375 0.8125 -1.820312 0.71875 -1.78125 C 0.632812 -1.738281 0.566406 -1.679688 0.515625 -1.609375 C 0.472656 -1.535156 0.453125 -1.453125 0.453125 -1.359375 L 0.453125 -0.703125 C 0.453125 -0.609375 0.472656 -0.523438 0.515625 -0.453125 C 0.566406 -0.378906 0.632812 -0.320312 0.71875 -0.28125 C 0.8125 -0.238281 0.914062 -0.21875 1.03125 -0.21875 C 1.144531 -0.21875 1.242188 -0.234375 1.328125 -0.265625 C 1.410156 -0.304688 1.476562 -0.359375 1.53125 -0.421875 C 1.582031 -0.492188 1.609375 -0.570312 1.609375 -0.65625 C 1.609375 -0.6875 1.601562 -0.722656 1.59375 -0.765625 C 1.625 -0.765625 1.644531 -0.765625 1.65625 -0.765625 C 1.71875 -0.765625 1.769531 -0.742188 1.8125 -0.703125 C 1.851562 -0.671875 1.875 -0.625 1.875 -0.5625 C 1.875 -0.445312 1.835938 -0.34375 1.765625 -0.25 C 1.691406 -0.164062 1.59375 -0.0976562 1.46875 -0.046875 C 1.34375 0.00390625 1.195312 0.03125 1.03125 0.03125 Z M 1.03125 0.03125 "/></g></g></g><g fill="#222831" fill-opacity="1"><g transform="translate(78.949451, 23.733367)"><g><path d="M 0.265625 -1.859375 C 0.265625 -1.929688 0.285156 -1.984375 0.328125 -2.015625 C 0.378906 -2.054688 0.453125 -2.078125 0.546875 -2.078125 L 0.546875 -0.203125 C 0.546875 -0.128906 0.519531 -0.0703125 0.46875 -0.03125 C 0.414062 0.0078125 0.347656 0.03125 0.265625 0.03125 Z M 0.265625 -1.859375 "/></g></g></g><g fill="#222831" fill-opacity="1"><g transform="translate(81.343958, 23.733367)"><g><path d="M 0.203125 -1.84375 C 0.203125 -1.914062 0.222656 -1.972656 0.265625 -2.015625 C 0.316406 -2.054688 0.382812 -2.078125 0.46875 -2.078125 L 1.609375 -0.34375 L 1.625 -0.375 L 1.546875 -0.515625 L 1.546875 -2.078125 C 1.628906 -2.078125 1.691406 -2.054688 1.734375 -2.015625 C 1.785156 -1.984375 1.8125 -1.929688 1.8125 -1.859375 L 1.8125 -0.1875 C 1.8125 -0.125 1.789062 -0.0703125 1.75 -0.03125 C 1.707031 0.0078125 1.648438 0.03125 1.578125 0.03125 L 0.421875 -1.75 L 0.390625 -1.734375 L 0.484375 -1.59375 L 0.484375 -0.203125 C 0.484375 -0.128906 0.457031 -0.0703125 0.40625 -0.03125 C 0.363281 0.0078125 0.296875 0.03125 0.203125 0.03125 Z M 0.203125 -1.84375 "/></g></g></g><g fill="#222831" fill-opacity="1"><g transform="translate(84.957357, 23.733367)"><g><path d="M 1.03125 0.03125 C 0.863281 0.03125 0.710938 0 0.578125 -0.0625 C 0.453125 -0.125 0.351562 -0.207031 0.28125 -0.3125 C 0.207031 -0.425781 0.171875 -0.554688 0.171875 -0.703125 L 0.171875 -1.359375 C 0.171875 -1.503906 0.207031 -1.628906 0.28125 -1.734375 C 0.351562 -1.847656 0.453125 -1.929688 0.578125 -1.984375 C 0.703125 -2.046875 0.847656 -2.078125 1.015625 -2.078125 C 1.179688 -2.078125 1.328125 -2.050781 1.453125 -2 C 1.578125 -1.945312 1.675781 -1.875 1.75 -1.78125 C 1.820312 -1.695312 1.859375 -1.59375 1.859375 -1.46875 C 1.859375 -1.414062 1.835938 -1.367188 1.796875 -1.328125 C 1.765625 -1.296875 1.710938 -1.28125 1.640625 -1.28125 C 1.628906 -1.28125 1.613281 -1.285156 1.59375 -1.296875 C 1.59375 -1.316406 1.59375 -1.351562 1.59375 -1.40625 C 1.59375 -1.488281 1.566406 -1.5625 1.515625 -1.625 C 1.472656 -1.695312 1.40625 -1.75 1.3125 -1.78125 C 1.226562 -1.820312 1.128906 -1.84375 1.015625 -1.84375 C 0.910156 -1.84375 0.8125 -1.820312 0.71875 -1.78125 C 0.632812 -1.738281 0.566406 -1.679688 0.515625 -1.609375 C 0.472656 -1.535156 0.453125 -1.453125 0.453125 -1.359375 L 0.453125 -0.703125 C 0.453125 -0.609375 0.472656 -0.523438 0.515625 -0.453125 C 0.566406 -0.378906 0.632812 -0.320312 0.71875 -0.28125 C 0.8125 -0.238281 0.914062 -0.21875 1.03125 -0.21875 C 1.144531 -0.21875 1.242188 -0.234375 1.328125 -0.265625 C 1.410156 -0.304688 1.472656 -0.359375 1.515625 -0.421875 C 1.566406 -0.492188 1.59375 -0.570312 1.59375 -0.65625 L 1.59375 -0.828125 L 1.234375 -0.828125 C 1.171875 -0.828125 1.117188 -0.847656 1.078125 -0.890625 C 1.046875 -0.929688 1.03125 -0.984375 1.03125 -1.046875 L 1.75 -1.046875 C 1.78125 -1.046875 1.804688 -1.035156 1.828125 -1.015625 C 1.859375 -0.992188 1.875 -0.960938 1.875 -0.921875 L 1.875 -0.65625 C 1.875 -0.519531 1.835938 -0.398438 1.765625 -0.296875 C 1.691406 -0.191406 1.59375 -0.109375 1.46875 -0.046875 C 1.34375 0.00390625 1.195312 0.03125 1.03125 0.03125 Z M 1.03125 0.03125 "/></g></g></g></svg>